<svg xmlns="http://www.w3.org/2000/svg" width="308.107" height="19.114" fill="none" overflow="visible"><g><path d="M 48.624 3.345 C 50.321 3.345 52.018 3.345 53.767 3.345 C 53.795 3.78 53.823 4.21 53.856 4.659 C 54.22 7.411 55.478 9.911 56.572 12.424 C 57.54 10.938 58.105 9.547 58.732 7.884 C 58.942 7.34 59.153 6.79 59.368 6.226 C 59.919 4.807 59.919 4.807 59.845 3.345 C 61.696 3.345 63.548 3.345 65.455 3.345 C 65.483 3.78 65.511 4.21 65.544 4.659 C 65.909 7.411 67.166 9.911 68.26 12.424 C 68.812 11.363 69.354 10.298 69.897 9.227 C 70.051 8.931 70.21 8.63 70.369 8.324 C 71.313 6.441 71.533 5.538 71.533 3.345 C 73.23 3.345 74.927 3.345 76.676 3.345 C 76.283 4.946 75.839 6.169 75.156 7.641 C 74.843 8.324 74.843 8.324 74.53 9.022 C 74.091 9.973 73.651 10.924 73.212 11.875 C 73.006 12.328 72.8 12.787 72.585 13.256 C 72.393 13.671 72.206 14.082 72.01 14.507 C 71.491 15.884 71.257 17.183 71.066 18.636 C 69.214 18.636 67.363 18.636 65.455 18.636 C 65.404 18.225 65.352 17.814 65.296 17.394 C 64.974 15.702 64.459 14.297 63.791 12.72 C 63.468 11.965 63.468 11.965 63.145 11.186 C 62.982 10.809 62.818 10.427 62.65 10.035 C 61.579 11.129 61.126 12.123 60.49 13.528 C 60.279 13.982 60.069 14.431 59.854 14.899 C 59.246 16.381 59.246 16.381 59.377 18.636 C 57.68 18.636 55.983 18.636 54.234 18.636 C 53.949 17.719 53.949 17.719 53.654 16.777 C 52.86 14.345 51.901 11.999 50.905 9.648 C 50.569 8.859 50.237 8.066 49.905 7.278 C 49.69 6.762 49.69 6.762 49.465 6.241 C 49.091 5.256 49.091 5.256 48.624 3.345 Z" fill="rgb(255,255,255)"></path><path d="M 148.677 3.345 C 150.528 3.345 152.379 3.345 154.287 3.345 C 154.409 3.756 154.525 4.167 154.647 4.587 C 155.25 6.288 156.008 7.712 156.915 9.261 C 157.214 9.762 157.508 10.269 157.812 10.795 C 158.037 11.172 158.261 11.554 158.495 11.946 C 160.473 9.175 162.226 6.465 163.638 3.345 C 165.335 3.345 167.032 3.345 168.781 3.345 C 168.781 8.391 168.781 13.437 168.781 18.636 C 167.238 18.636 165.695 18.636 164.105 18.636 C 164.339 17.924 164.339 17.924 164.573 17.203 C 164.606 15.974 164.615 14.756 164.601 13.528 C 164.601 13.193 164.596 12.859 164.596 12.515 C 164.592 11.688 164.582 10.861 164.573 10.035 C 164.428 10.279 164.283 10.527 164.129 10.78 C 163.465 11.889 162.792 12.993 162.118 14.097 C 161.889 14.484 161.66 14.871 161.422 15.272 C 161.197 15.635 160.968 16.003 160.739 16.381 C 160.43 16.892 160.43 16.892 160.113 17.413 C 159.888 17.656 159.664 17.905 159.43 18.158 C 158.813 18.158 158.196 18.158 157.56 18.158 C 156.171 15.635 154.783 13.112 153.352 10.513 C 153.352 13.193 153.352 15.874 153.352 18.636 C 151.809 18.636 150.266 18.636 148.677 18.636 C 148.677 13.59 148.677 8.544 148.677 3.345 Z" fill="rgb(255,255,255)"></path><path d="M 203.846 0.956 C 206.193 0.922 208.535 0.894 210.882 0.879 C 211.682 0.87 212.477 0.86 213.276 0.846 C 214.422 0.831 215.572 0.822 216.722 0.817 C 217.077 0.808 217.428 0.803 217.793 0.793 C 220.032 0.793 221.528 1.152 223.482 2.389 C 224.605 3.799 224.614 5.395 224.567 7.187 C 224.324 8.716 223.646 9.481 222.547 10.513 C 220.85 11.358 219.508 11.583 217.629 11.564 C 216.914 11.559 216.914 11.559 216.18 11.554 C 215.689 11.545 215.193 11.535 214.688 11.526 C 214.183 11.526 213.683 11.521 213.164 11.516 C 211.93 11.502 210.691 11.487 209.456 11.468 C 209.456 13.518 209.456 15.568 209.456 17.68 C 209.765 17.68 210.074 17.68 210.391 17.68 C 210.391 17.996 210.391 18.311 210.391 18.636 C 208.231 18.636 206.071 18.636 203.846 18.636 C 203.846 18.321 203.846 18.005 203.846 17.68 C 204.309 17.441 204.309 17.441 204.781 17.203 C 204.935 12.156 205.09 7.11 205.249 1.911 C 204.786 1.911 204.323 1.911 203.846 1.911 C 203.846 1.596 203.846 1.281 203.846 0.956 Z M 209.456 3.823 C 209.456 5.4 209.456 6.977 209.456 8.601 C 210.985 8.639 212.514 8.668 214.043 8.692 C 214.697 8.711 214.697 8.711 215.361 8.726 C 215.777 8.73 216.194 8.735 216.624 8.74 C 217.007 8.749 217.395 8.754 217.788 8.764 C 218.84 8.678 218.84 8.678 219.649 7.971 C 220.359 7.129 220.359 7.129 220.121 5.672 C 219.995 5.223 219.873 4.769 219.742 4.301 C 218.62 3.727 217.923 3.77 216.67 3.775 C 216.044 3.78 216.044 3.78 215.399 3.78 C 214.964 3.785 214.524 3.789 214.076 3.794 C 213.412 3.794 213.412 3.794 212.734 3.799 C 211.64 3.804 210.55 3.813 209.456 3.823 Z" fill="rgb(255,255,255)"></path><path d="M 95.377 4.778 C 97.416 6.637 98.557 8.295 98.767 11.139 C 98.599 13.647 97.921 15.114 96.14 16.844 C 92.773 19.138 88.874 19.472 84.947 18.784 C 82.146 18.11 80.112 16.825 78.546 14.335 C 77.98 12.123 77.892 10.149 78.574 7.975 C 82.272 2.733 89.893 1.601 95.377 4.778 Z M 82.988 8.721 C 82.156 10.035 82.156 10.035 82.258 11.736 C 82.843 13.676 83.427 14.235 85.092 15.291 C 86.995 15.941 88.715 16.027 90.702 15.769 C 92.479 14.809 93.33 14.13 94.442 12.424 C 94.377 10.608 94.246 9.457 93.185 7.975 C 89.739 5.404 86.12 5.839 82.988 8.721 Z" fill="rgb(255,255,255)"></path><path d="M 142.075 5.706 C 143.379 7 143.922 7.98 144.16 9.839 C 144.198 12.692 144.118 14.531 142.131 16.725 C 138.91 19.052 134.515 19.487 130.676 18.818 C 128.17 18.163 126.024 16.868 124.365 14.813 C 123.561 12.352 123.621 10.001 124.365 7.526 C 128.418 1.83 136.778 2.06 142.075 5.706 Z M 129.04 8.123 C 127.871 9.915 127.853 10.78 128.105 12.902 C 129.489 14.66 130.555 15.611 132.79 15.884 C 135.534 15.974 137.152 15.626 139.326 13.858 C 140.172 12.257 140.172 12.257 140.261 10.513 C 139.499 8.496 138.433 7.56 136.521 6.69 C 133.524 5.935 131.569 6.255 129.04 8.123 Z" fill="rgb(255,255,255)"></path><path d="M 119.689 4.778 C 119.371 6.174 118.951 7.335 118.287 8.601 C 116.954 8.291 115.729 7.856 114.458 7.349 C 112.139 6.532 110.399 6.742 108.001 7.168 C 108.001 7.483 108.001 7.798 108.001 8.123 C 108.384 8.2 108.384 8.2 108.777 8.276 C 109.951 8.51 111.124 8.749 112.298 8.988 C 112.7 9.07 113.106 9.146 113.523 9.227 C 115.659 9.672 117.45 10.087 119.222 11.468 C 119.89 12.83 119.834 13.776 119.689 15.291 C 118.553 17.179 117.576 18.077 115.482 18.636 C 111.302 19.587 107.421 18.598 103.326 17.68 C 102.816 16.099 102.825 15.845 103.531 14.216 C 103.891 13.566 103.891 13.566 104.261 12.902 C 104.724 12.902 105.186 12.902 105.663 12.902 C 105.818 13.375 105.972 13.848 106.131 14.335 C 108.824 15.678 112.185 15.779 115.014 14.813 C 115.014 14.498 115.014 14.183 115.014 13.858 C 114.743 13.81 114.472 13.762 114.191 13.714 C 112.957 13.49 111.718 13.256 110.484 13.021 C 109.843 12.907 109.843 12.907 109.193 12.792 C 106.809 12.333 105.027 11.941 103.326 10.035 C 103.031 8.391 103.031 8.391 103.326 6.69 C 107.346 1.405 114.196 3.077 119.689 4.778 Z" fill="rgb(255,255,255)"></path><path d="M 189.82 2.867 C 189.82 4.286 189.82 5.706 189.82 7.168 C 186.271 7.01 182.723 6.852 179.067 6.69 C 179.067 7.636 179.067 8.582 179.067 9.557 C 179.875 9.49 180.684 9.418 181.493 9.347 C 181.942 9.308 182.391 9.27 182.858 9.232 C 184.111 9.089 185.317 8.874 186.547 8.601 C 186.547 10.02 186.547 11.44 186.547 12.902 C 184.079 12.744 181.61 12.587 179.067 12.424 C 179.067 13.528 179.067 14.632 179.067 15.769 C 180.586 15.702 182.106 15.63 183.625 15.559 C 184.055 15.54 184.485 15.521 184.929 15.501 C 185.346 15.482 185.762 15.463 186.187 15.444 C 186.762 15.415 186.762 15.415 187.347 15.391 C 188.562 15.305 188.562 15.305 190.287 14.813 C 190.287 16.232 190.287 17.652 190.287 19.114 C 185.042 18.956 179.796 18.799 174.391 18.636 C 174.391 13.59 174.391 8.544 174.391 3.345 C 176.677 3.264 178.964 3.187 181.315 3.106 C 182.035 3.082 182.755 3.058 183.499 3.03 C 184.064 3.01 184.63 2.991 185.21 2.972 C 186.084 2.944 186.084 2.944 186.973 2.91 C 187.922 2.881 188.871 2.867 189.82 2.867 Z" fill="rgb(255,255,255)"></path><path d="M 308.107 2.867 C 308.107 4.286 308.107 5.706 308.107 7.168 C 304.404 7.01 300.701 6.852 296.886 6.69 C 296.886 7.636 296.886 8.582 296.886 9.557 C 297.774 9.49 298.658 9.418 299.546 9.347 C 300.037 9.308 300.533 9.27 301.042 9.232 C 302.333 9.098 303.567 8.888 304.834 8.601 C 304.834 10.02 304.834 11.44 304.834 12.902 C 302.211 12.744 299.588 12.587 296.886 12.424 C 296.886 13.528 296.886 14.632 296.886 15.769 C 298.494 15.702 300.102 15.63 301.706 15.559 C 302.164 15.54 302.622 15.521 303.09 15.501 C 303.529 15.482 303.969 15.463 304.418 15.444 C 305.026 15.415 305.026 15.415 305.643 15.391 C 306.779 15.325 306.779 15.325 308.107 14.813 C 308.107 16.232 308.107 17.652 308.107 19.114 C 303.015 18.956 297.924 18.799 292.678 18.636 C 292.678 13.59 292.678 8.544 292.678 3.345 C 294.964 3.264 297.25 3.187 299.602 3.106 C 300.322 3.082 301.042 3.058 301.786 3.03 C 302.351 3.01 302.917 2.991 303.497 2.972 C 304.371 2.944 304.371 2.944 305.259 2.91 C 306.208 2.881 307.158 2.867 308.107 2.867 Z" fill="rgb(255,255,255)"></path><path d="M 254.34 3.345 C 256.191 3.345 258.043 3.345 259.95 3.345 C 260.268 4.262 260.268 4.262 260.596 5.199 C 262.036 8.912 264.055 12.333 265.991 15.793 C 266.496 16.725 266.963 17.68 267.431 18.636 C 265.425 18.636 263.419 18.636 261.353 18.636 C 261.199 17.69 261.044 16.744 260.885 15.769 C 258.263 15.611 255.64 15.454 252.937 15.291 C 252.783 16.395 252.629 17.499 252.47 18.636 C 250.773 18.636 249.075 18.636 247.327 18.636 C 248.009 16.892 248.706 15.325 249.566 13.676 C 249.814 13.198 250.062 12.716 250.314 12.223 C 250.838 11.22 251.362 10.216 251.881 9.213 C 252.128 8.735 252.376 8.257 252.633 7.765 C 252.97 7.11 252.97 7.11 253.321 6.446 C 253.957 5.17 253.957 5.17 254.34 3.345 Z M 256.678 7.646 C 256.06 9.065 255.443 10.484 254.807 11.946 C 256.196 11.946 257.585 11.946 259.015 11.946 C 258.431 10.293 257.762 9.007 256.678 7.646 Z" fill="rgb(255,255,255)"></path><path d="M 7.013 3.345 C 8.864 3.345 10.716 3.345 12.623 3.345 C 12.75 3.765 12.881 4.186 13.012 4.621 C 13.516 6.097 14.106 7.373 14.844 8.74 C 15.092 9.199 15.335 9.657 15.588 10.13 C 15.845 10.603 16.102 11.072 16.364 11.559 C 16.621 12.032 16.873 12.51 17.14 13.002 C 18.552 15.626 18.552 15.626 20.104 18.158 C 19.637 18.636 19.637 18.636 18.365 18.684 C 17.851 18.679 17.332 18.67 16.803 18.665 C 16.027 18.66 16.027 18.66 15.237 18.655 C 14.84 18.646 14.438 18.641 14.026 18.636 C 13.872 17.69 13.718 16.744 13.559 15.769 C 10.936 15.611 8.313 15.454 5.61 15.291 C 5.456 16.395 5.302 17.499 5.143 18.636 C 3.446 18.636 1.749 18.636 0 18.636 C 0 18.163 0 17.69 0 17.203 C 0.309 17.203 0.617 17.203 0.935 17.203 C 1.043 16.825 1.145 16.448 1.253 16.056 C 2.052 13.829 3.132 11.817 4.236 9.739 C 4.661 8.936 5.087 8.133 5.512 7.33 C 5.699 6.977 5.886 6.623 6.078 6.26 C 6.639 5.142 6.639 5.142 7.013 3.345 Z M 9.351 7.646 C 9.042 8.176 8.734 8.711 8.416 9.261 C 8.243 9.557 8.07 9.858 7.892 10.164 C 7.41 10.976 7.41 10.976 7.481 11.946 C 8.869 11.946 10.258 11.946 11.688 11.946 C 11.104 10.293 10.435 9.007 9.351 7.646 Z" fill="rgb(255,255,255)"></path><path d="M 287.535 4.778 C 286.782 6.073 286.015 7.345 285.197 8.601 C 284.945 8.463 284.697 8.324 284.435 8.186 C 281.518 6.771 279.451 6.59 276.314 7.168 C 275.973 7.225 275.632 7.278 275.281 7.34 C 275.005 7.44 274.729 7.54 274.444 7.646 C 273.869 9.414 273.705 11.067 273.976 12.902 C 274.851 14.063 275.51 14.641 276.782 15.291 C 279.241 15.506 281.532 15.434 283.795 14.335 C 283.949 13.862 284.103 13.389 284.262 12.902 C 285.73 13.064 286.146 13.394 287.184 14.517 C 288.003 15.769 288.003 15.769 288.003 17.203 C 287.675 17.26 287.348 17.322 287.007 17.384 C 285.66 17.647 285.66 17.647 284.407 18.158 C 280.218 19.448 276.333 19.429 272.429 17.322 C 270.69 15.836 269.493 14.593 269.123 12.233 C 269.035 10.197 269.189 8.855 270.03 6.991 C 274.757 1.787 281.48 2.934 287.535 4.778 Z" fill="rgb(255,255,255)"></path><path d="M 25.715 0 C 26.332 0.158 26.949 0.315 27.585 0.478 C 28.856 0.526 30.114 0.545 31.381 0.54 C 31.75 0.54 32.115 0.54 32.494 0.545 C 33.265 0.545 34.041 0.54 34.813 0.54 C 35.996 0.54 37.179 0.54 38.361 0.545 C 39.114 0.545 39.867 0.54 40.62 0.54 C 40.97 0.54 41.321 0.545 41.686 0.545 C 43.331 0.535 44.673 0.411 46.286 0 C 46.286 1.419 46.286 2.838 46.286 4.301 C 43.509 4.143 40.732 3.985 37.87 3.823 C 37.927 5.701 37.983 7.583 38.043 9.461 C 38.076 10.412 38.104 11.368 38.132 12.319 C 38.151 12.921 38.17 13.518 38.188 14.135 C 38.207 14.689 38.226 15.243 38.24 15.812 C 38.282 17.231 38.282 17.231 38.806 18.636 C 36.954 18.636 35.103 18.636 33.195 18.636 C 33.349 13.748 33.504 8.859 33.663 3.823 C 29.731 4.062 29.731 4.062 25.715 4.301 C 25.715 2.881 25.715 1.462 25.715 0 Z" fill="rgb(255,255,255)"></path><path d="M 227.69 3.345 C 229.542 3.345 231.393 3.345 233.301 3.345 C 233.301 3.818 233.301 4.291 233.301 4.778 C 232.992 4.778 232.684 4.778 232.366 4.778 C 232.366 8.405 232.366 12.032 232.366 15.769 C 234.035 15.702 235.704 15.63 237.42 15.559 C 237.943 15.54 238.467 15.521 239.009 15.497 C 239.425 15.478 239.837 15.463 240.262 15.444 C 240.688 15.425 241.113 15.406 241.548 15.391 C 242.722 15.329 242.722 15.329 244.054 14.813 C 244.054 16.233 244.054 17.652 244.054 19.114 C 238.5 18.956 232.945 18.799 227.223 18.636 C 227.223 18.321 227.223 18.005 227.223 17.68 C 227.531 17.68 227.84 17.68 228.158 17.68 C 228.158 13.423 228.158 9.165 228.158 4.778 C 227.849 4.778 227.541 4.778 227.223 4.778 C 227.377 4.305 227.531 3.832 227.69 3.345 Z" fill="rgb(255,255,255)"></path></g></svg>