<svg xmlns="http://www.w3.org/2000/svg" width="191" height="41" fill="none"><path d="M 98.805 20.19 C 98.805 19.618 98.774 19.046 98.742 18.506 C 98.71 17.967 98.615 17.395 98.552 16.855 L 83.159 16.855 L 80.815 20.539 L 78.472 24.223 L 90.349 24.223 C 89.652 26.637 88.29 28.701 86.453 30.162 C 84.616 31.623 82.304 32.512 79.612 32.512 C 76.255 32.512 73.277 31.115 71.092 28.86 C 68.907 26.605 67.576 23.524 67.576 20.126 C 67.576 16.791 68.907 13.743 71.124 11.519 C 73.309 9.296 76.35 7.899 79.707 7.899 C 81.164 7.899 82.526 8.121 83.793 8.566 C 85.059 8.979 86.2 9.614 87.213 10.376 L 89.272 7.073 L 91.331 3.77 C 89.747 2.659 87.973 1.769 86.01 1.198 C 84.078 0.594 81.956 0.308 79.739 0.308 C 76.761 0.308 74.069 0.848 71.694 1.833 C 69.318 2.817 67.196 4.247 65.423 6.025 C 61.21 10.249 60.007 14.537 59.183 18.443 C 58.328 22.381 57.853 25.97 54.971 28.828 C 53.767 30.035 52.469 30.956 51.012 31.559 C 49.555 32.163 48.003 32.481 46.324 32.481 C 42.872 32.481 39.768 31.051 37.488 28.796 C 35.239 26.542 33.845 23.461 33.845 20.126 C 33.845 16.855 35.239 13.806 37.488 11.551 C 39.736 9.296 42.84 7.867 46.324 7.835 C 47.781 7.867 49.111 8.089 50.347 8.471 C 51.582 8.852 52.722 9.455 53.736 10.217 L 55.826 6.914 L 57.916 3.611 C 56.333 2.5 54.559 1.642 52.627 1.071 C 50.695 0.499 48.573 0.213 46.356 0.213 C 42.935 0.213 39.736 1.039 36.949 2.5 C 34.162 3.961 31.787 6.025 29.981 8.502 C 29.285 6.311 27.828 4.437 25.832 3.135 C 23.837 1.801 21.303 1.039 18.453 1.039 L 0.621 1.039 L 0.621 39.277 L 20.258 39.277 C 22.728 39.277 24.945 38.674 26.782 37.657 C 28.619 36.641 30.076 35.18 31.09 33.465 C 32.927 35.498 35.144 37.149 37.678 38.292 C 40.212 39.436 43.03 40.071 46.071 40.071 C 49.618 40.071 52.88 39.245 55.699 37.753 C 58.518 36.26 60.894 34.132 62.731 31.496 C 64.472 34.1 66.848 36.228 69.698 37.721 C 72.517 39.213 75.843 40.071 79.39 40.071 C 84.869 40.071 89.715 37.848 93.199 34.227 C 96.683 30.67 98.805 25.684 98.805 20.19 Z M 8.888 16.537 L 8.888 8.185 L 18.294 8.185 C 19.498 8.185 20.543 8.629 21.303 9.36 C 22.063 10.09 22.538 11.138 22.538 12.345 C 22.538 13.552 22.063 14.6 21.303 15.331 C 20.543 16.093 19.466 16.537 18.294 16.537 Z M 8.888 32.195 L 8.888 23.524 L 20.163 23.524 C 21.43 23.524 22.538 24.001 23.362 24.763 C 24.185 25.525 24.692 26.605 24.692 27.844 C 24.692 29.082 24.185 30.162 23.362 30.956 C 22.538 31.75 21.43 32.226 20.163 32.226 L 8.888 32.226 Z M 117.587 34.64 C 117.619 34.704 117.619 34.799 117.619 34.894 C 117.619 34.989 117.65 35.117 117.65 35.212 C 117.65 36.419 117.239 37.467 116.51 38.229 C 115.782 38.991 114.736 39.436 113.533 39.436 C 112.329 39.436 111.221 38.959 110.429 38.134 C 109.637 37.34 109.162 36.228 109.162 34.989 C 109.162 33.751 109.669 32.639 110.461 31.845 C 111.252 31.051 112.361 30.543 113.596 30.543 C 114.103 30.543 114.578 30.607 115.021 30.734 C 115.465 30.861 115.877 31.051 116.257 31.337 L 115.908 31.877 L 115.56 32.417 C 115.275 32.195 114.958 32.036 114.641 31.941 C 114.325 31.845 113.976 31.782 113.596 31.782 C 112.741 31.782 111.981 32.131 111.442 32.671 C 110.904 33.211 110.556 34.005 110.556 34.926 C 110.556 35.815 110.872 36.609 111.411 37.181 C 111.949 37.753 112.678 38.102 113.533 38.102 C 114.325 38.102 114.958 37.848 115.433 37.435 C 115.908 37.022 116.193 36.419 116.32 35.752 L 113.438 35.752 L 113.818 35.148 L 114.198 34.545 Z M 131.903 39.499 C 133.138 39.499 134.247 38.991 135.07 38.197 C 135.862 37.403 136.369 36.292 136.369 35.085 C 136.369 33.878 135.862 32.766 135.07 31.972 C 134.278 31.178 133.138 30.67 131.903 30.67 C 130.668 30.67 129.559 31.178 128.767 31.972 C 127.975 32.766 127.469 33.878 127.469 35.085 C 127.469 36.292 127.975 37.403 128.767 38.197 C 129.559 38.991 130.668 39.499 131.903 39.499 Z M 139.567 30.829 L 139.567 36.038 C 139.567 36.641 139.789 37.213 140.169 37.594 C 140.549 37.975 141.088 38.229 141.721 38.229 C 142.355 38.229 142.893 37.975 143.273 37.594 C 143.653 37.213 143.875 36.641 143.875 36.038 L 143.875 30.829 L 145.205 30.829 L 145.205 36.038 C 145.205 37.022 144.825 37.88 144.223 38.515 C 143.59 39.118 142.735 39.499 141.721 39.499 C 140.708 39.499 139.853 39.118 139.219 38.515 C 138.586 37.911 138.206 37.054 138.206 36.038 L 138.206 30.829 Z M 122.971 30.829 C 123.858 30.829 124.587 31.115 125.093 31.623 C 125.6 32.099 125.885 32.798 125.885 33.56 C 125.885 34.196 125.695 34.735 125.378 35.18 C 125.062 35.625 124.587 35.942 123.985 36.069 L 124.998 37.689 L 126.012 39.309 L 124.428 39.309 L 123.478 37.784 L 122.528 36.26 L 120.913 36.26 L 120.913 39.309 L 119.551 39.309 L 119.551 30.829 Z M 150.97 30.829 C 151.856 30.829 152.585 31.147 153.123 31.623 C 153.63 32.131 153.915 32.798 153.915 33.592 C 153.915 34.354 153.63 35.053 153.123 35.561 C 152.616 36.069 151.856 36.355 150.97 36.355 L 149.037 36.355 L 149.037 39.309 L 147.676 39.309 L 147.676 30.829 Z M 131.903 38.229 C 131.048 38.229 130.287 37.88 129.749 37.308 C 129.211 36.736 128.862 35.942 128.862 35.085 C 128.862 34.227 129.211 33.433 129.749 32.862 C 130.287 32.29 131.079 31.941 131.903 31.941 C 132.758 31.941 133.518 32.29 134.088 32.862 C 134.627 33.433 134.975 34.227 134.975 35.085 C 134.975 35.974 134.627 36.768 134.088 37.308 C 133.55 37.88 132.79 38.229 131.903 38.229 Z M 150.97 35.148 C 151.413 35.148 151.793 34.989 152.078 34.735 C 152.363 34.481 152.521 34.1 152.521 33.624 C 152.521 33.147 152.363 32.798 152.078 32.512 C 151.793 32.258 151.413 32.099 150.97 32.099 L 149.037 32.099 L 149.037 35.148 Z M 122.971 35.021 C 123.415 35.021 123.763 34.894 124.048 34.64 C 124.301 34.386 124.46 34.037 124.46 33.56 C 124.46 33.116 124.301 32.735 124.048 32.481 C 123.795 32.226 123.415 32.068 122.971 32.068 L 120.913 32.068 L 120.913 35.021 Z M 190.592 19.777 C 190.623 19.84 190.623 19.936 190.623 20.031 C 190.623 20.126 190.655 20.253 190.655 20.348 C 190.655 21.555 190.243 22.603 189.515 23.366 C 188.786 24.128 187.741 24.604 186.537 24.604 C 185.302 24.604 184.225 24.128 183.434 23.302 C 182.642 22.508 182.167 21.397 182.167 20.158 C 182.167 18.919 182.642 17.808 183.465 17.014 C 184.257 16.22 185.366 15.712 186.601 15.712 C 187.108 15.712 187.583 15.775 188.026 15.902 C 188.47 16.029 188.881 16.22 189.261 16.506 L 188.913 17.046 L 188.565 17.585 C 188.279 17.363 187.963 17.204 187.646 17.109 C 187.329 17.014 186.981 16.95 186.601 16.95 C 185.746 16.95 184.986 17.3 184.447 17.839 C 183.909 18.411 183.56 19.205 183.56 20.094 C 183.56 20.984 183.877 21.778 184.415 22.349 C 184.954 22.921 185.682 23.27 186.537 23.27 C 187.329 23.27 187.963 23.016 188.438 22.603 C 188.913 22.191 189.198 21.587 189.325 20.92 L 186.442 20.92 L 186.823 20.317 L 187.203 19.713 Z M 146.852 15.966 L 146.852 21.174 C 146.852 21.778 147.074 22.349 147.454 22.73 C 147.834 23.112 148.372 23.366 149.006 23.366 C 149.639 23.366 150.178 23.112 150.558 22.73 C 150.938 22.349 151.16 21.778 151.16 21.174 L 151.16 15.966 L 152.49 15.966 L 152.49 21.174 C 152.49 22.159 152.11 23.016 151.508 23.651 C 150.875 24.255 150.019 24.636 149.006 24.636 C 147.992 24.636 147.137 24.255 146.504 23.651 C 145.87 23.048 145.49 22.191 145.49 21.174 L 145.49 15.966 Z M 140.549 24.636 C 141.499 24.636 142.228 24.35 142.735 23.906 C 143.241 23.429 143.527 22.794 143.527 22.063 C 143.527 21.269 143.21 20.73 142.735 20.38 C 142.26 19.999 141.626 19.809 140.961 19.586 C 140.423 19.427 139.948 19.3 139.631 19.078 C 139.314 18.888 139.124 18.633 139.124 18.221 C 139.124 17.871 139.251 17.585 139.472 17.363 C 139.726 17.141 140.074 17.014 140.581 17.014 C 140.898 17.014 141.214 17.077 141.531 17.173 C 141.848 17.268 142.165 17.427 142.481 17.649 L 142.83 17.109 L 143.178 16.569 C 142.83 16.315 142.45 16.124 142.038 15.997 C 141.595 15.87 141.151 15.775 140.644 15.775 C 139.758 15.775 139.029 16.029 138.554 16.474 C 138.079 16.918 137.794 17.554 137.794 18.284 C 137.794 19.11 138.111 19.618 138.586 19.967 C 139.061 20.317 139.694 20.539 140.359 20.73 C 140.898 20.888 141.373 21.047 141.69 21.238 C 142.006 21.428 142.196 21.682 142.196 22.095 C 142.196 22.445 142.07 22.762 141.785 22.984 C 141.531 23.207 141.119 23.334 140.581 23.334 C 140.138 23.334 139.758 23.239 139.377 23.112 C 138.997 22.953 138.617 22.762 138.269 22.54 L 137.921 23.08 L 137.572 23.62 C 137.921 23.874 138.332 24.128 138.839 24.318 C 139.314 24.509 139.884 24.636 140.549 24.636 Z M 122.084 24.636 C 123.32 24.636 124.428 24.128 125.252 23.334 C 126.043 22.54 126.55 21.428 126.55 20.221 C 126.55 19.015 126.043 17.903 125.252 17.077 C 124.428 16.283 123.32 15.775 122.084 15.775 C 120.849 15.775 119.741 16.283 118.949 17.077 C 118.157 17.871 117.65 18.983 117.65 20.221 C 117.65 21.428 118.157 22.54 118.949 23.334 C 119.741 24.128 120.849 24.636 122.084 24.636 Z M 109.13 20.221 C 109.13 21.46 109.637 22.572 110.429 23.366 C 111.252 24.16 112.361 24.668 113.628 24.668 C 114.23 24.668 114.736 24.572 115.211 24.414 C 115.687 24.255 116.067 24.033 116.478 23.715 L 116.13 23.175 L 115.782 22.635 C 115.465 22.889 115.116 23.08 114.768 23.207 C 114.42 23.334 114.008 23.397 113.596 23.397 C 112.773 23.397 112.013 23.048 111.474 22.476 C 110.936 21.905 110.587 21.111 110.587 20.221 C 110.587 19.332 110.904 18.538 111.474 17.967 C 112.013 17.395 112.773 17.046 113.596 17.046 C 114.04 17.046 114.42 17.109 114.768 17.236 C 115.116 17.363 115.465 17.554 115.782 17.808 L 116.13 17.268 L 116.478 16.728 C 116.098 16.442 115.687 16.188 115.211 16.029 C 114.736 15.87 114.23 15.775 113.628 15.775 C 112.361 15.775 111.252 16.252 110.429 17.077 C 109.637 17.871 109.13 18.983 109.13 20.221 Z M 170.29 24.445 L 168.928 24.445 L 168.928 15.966 L 170.29 15.966 Z M 174.597 24.445 L 173.298 24.445 L 173.298 15.966 L 174.977 15.966 L 176.941 19.173 L 178.904 22.381 L 178.904 15.966 L 180.203 15.966 L 180.203 24.445 L 178.619 24.445 L 176.592 21.174 L 174.565 17.903 L 174.565 24.445 Z M 166.869 17.236 L 164.209 17.236 L 164.209 24.445 L 162.815 24.445 L 162.815 17.236 L 160.186 17.236 L 160.186 15.966 L 166.869 15.966 Z M 156.259 23.175 L 160.44 23.175 L 160.44 24.445 L 154.897 24.445 L 154.897 15.966 L 156.259 15.966 Z M 129.781 24.445 L 128.482 24.445 L 128.482 15.966 L 130.161 15.966 L 132.125 19.173 L 134.088 22.381 L 134.088 15.966 L 135.387 15.966 L 135.387 24.445 L 133.803 24.445 L 131.776 21.174 L 129.749 17.903 L 129.749 24.445 Z M 122.084 23.366 C 121.229 23.366 120.469 23.016 119.931 22.445 C 119.392 21.873 119.044 21.079 119.044 20.221 C 119.044 19.332 119.392 18.538 119.931 17.998 C 120.469 17.427 121.261 17.077 122.084 17.077 C 122.94 17.077 123.7 17.427 124.27 17.998 C 124.808 18.57 125.157 19.364 125.157 20.221 C 125.157 21.111 124.808 21.905 124.27 22.445 C 123.7 23.016 122.94 23.366 122.084 23.366 Z M 146.884 9.741 C 148.119 9.741 149.228 9.233 150.051 8.439 C 150.843 7.645 151.35 6.533 151.35 5.326 C 151.35 4.119 150.843 3.008 150.051 2.182 C 149.259 1.388 148.151 0.88 146.884 0.88 C 145.649 0.88 144.54 1.388 143.748 2.182 C 142.956 2.976 142.45 4.088 142.45 5.326 C 142.45 6.533 142.956 7.645 143.748 8.439 C 144.54 9.264 145.649 9.741 146.884 9.741 Z M 130.604 9.741 C 131.554 9.741 132.283 9.487 132.79 9.01 C 133.296 8.534 133.581 7.899 133.581 7.168 C 133.581 6.374 133.265 5.834 132.79 5.485 C 132.315 5.136 131.681 4.913 131.016 4.691 C 130.478 4.532 130.002 4.405 129.686 4.183 C 129.369 3.992 129.179 3.738 129.179 3.326 C 129.179 2.976 129.306 2.69 129.527 2.468 C 129.781 2.246 130.129 2.119 130.636 2.119 C 130.953 2.119 131.269 2.182 131.586 2.277 C 131.903 2.373 132.22 2.532 132.536 2.754 L 132.885 2.214 L 133.233 1.674 C 132.885 1.42 132.505 1.229 132.093 1.102 C 131.649 0.975 131.206 0.88 130.699 0.88 C 129.812 0.88 129.084 1.134 128.609 1.579 C 128.134 2.023 127.849 2.659 127.849 3.389 C 127.849 4.215 128.165 4.723 128.641 5.072 C 129.116 5.422 129.749 5.644 130.414 5.834 C 130.953 5.993 131.428 6.152 131.744 6.343 C 132.061 6.533 132.251 6.787 132.251 7.2 C 132.251 7.549 132.125 7.867 131.839 8.089 C 131.586 8.312 131.174 8.439 130.636 8.439 C 130.193 8.439 129.812 8.343 129.432 8.216 C 129.052 8.058 128.672 7.867 128.324 7.645 L 127.975 8.185 L 127.627 8.725 C 127.975 8.979 128.387 9.233 128.894 9.423 C 129.369 9.646 129.939 9.741 130.604 9.741 Z M 121.831 9.741 C 123.066 9.741 124.175 9.233 124.998 8.439 C 125.79 7.645 126.297 6.533 126.297 5.326 C 126.297 4.119 125.79 3.008 124.998 2.182 C 124.206 1.388 123.098 0.88 121.831 0.88 C 120.596 0.88 119.487 1.388 118.695 2.182 C 117.904 2.976 117.397 4.088 117.397 5.326 C 117.397 6.533 117.904 7.645 118.695 8.439 C 119.487 9.264 120.596 9.741 121.831 9.741 Z M 154.96 1.102 L 156.924 4.31 L 158.888 7.518 L 158.888 1.102 L 160.186 1.102 L 160.186 9.582 L 158.603 9.582 L 156.576 6.311 L 154.548 3.04 L 154.548 9.614 L 153.282 9.614 L 153.282 1.134 Z M 141.595 1.102 L 141.595 2.373 L 138.934 2.373 L 138.934 9.582 L 137.54 9.582 L 137.54 2.373 L 134.912 2.373 L 134.912 1.102 Z M 112.899 1.102 C 113.66 1.102 114.293 1.356 114.768 1.738 C 115.243 2.15 115.528 2.722 115.528 3.357 C 115.528 3.738 115.433 4.056 115.275 4.342 C 115.085 4.628 114.863 4.882 114.546 5.041 C 114.958 5.231 115.307 5.517 115.528 5.866 C 115.75 6.216 115.877 6.628 115.877 7.073 C 115.877 7.772 115.592 8.375 115.117 8.82 C 114.641 9.264 113.976 9.519 113.184 9.519 L 109.574 9.519 L 109.574 1.039 Z M 146.884 8.471 C 146.029 8.471 145.268 8.121 144.73 7.549 C 144.192 6.978 143.843 6.184 143.843 5.326 C 143.843 4.469 144.192 3.643 144.73 3.103 C 145.268 2.532 146.06 2.182 146.884 2.182 C 147.739 2.182 148.499 2.532 149.069 3.103 C 149.608 3.675 149.956 4.469 149.956 5.326 C 149.956 6.216 149.608 7.01 149.069 7.549 C 148.499 8.153 147.739 8.471 146.884 8.471 Z M 121.831 8.471 C 120.976 8.471 120.216 8.121 119.677 7.549 C 119.139 6.978 118.79 6.184 118.79 5.326 C 118.79 4.469 119.139 3.643 119.677 3.103 C 120.216 2.532 121.008 2.182 121.831 2.182 C 122.686 2.182 123.446 2.532 124.016 3.103 C 124.555 3.675 124.903 4.469 124.903 5.326 C 124.903 6.216 124.555 7.01 124.016 7.549 C 123.446 8.153 122.686 8.471 121.831 8.471 Z M 113.121 8.343 C 113.501 8.343 113.818 8.216 114.071 7.962 C 114.293 7.74 114.451 7.422 114.451 7.073 C 114.451 6.724 114.325 6.406 114.071 6.184 C 113.818 5.962 113.501 5.834 113.121 5.834 L 110.936 5.834 L 110.936 8.312 Z M 112.899 4.691 C 113.248 4.691 113.565 4.564 113.786 4.342 C 114.008 4.119 114.135 3.834 114.135 3.484 C 114.135 3.135 114.008 2.849 113.786 2.627 C 113.565 2.404 113.248 2.277 112.899 2.277 L 110.936 2.277 L 110.936 4.659 Z" fill="rgb(255, 255, 255)"></path></svg>