<svg xmlns="http://www.w3.org/2000/svg" width="234.027" height="42.285" fill="none" overflow="visible"><g><path d="M 0 42.189 L 0 0 L 234 0 L 234 42.189 Z" fill="transparent"></path><path d="M 18.521 1.64 C 18.794 1.64 19.067 1.641 19.341 1.64 C 19.91 1.641 20.48 1.642 21.049 1.644 C 21.771 1.647 22.493 1.647 23.215 1.647 C 23.778 1.647 24.342 1.648 24.905 1.649 C 25.171 1.65 25.437 1.65 25.703 1.65 C 30.639 1.654 30.639 1.654 32.384 2.066 C 32.495 2.091 32.605 2.117 32.719 2.143 C 34.357 2.555 36.053 3.333 37.227 4.569 C 37.227 4.67 37.227 4.77 37.227 4.874 C 37.328 4.874 37.428 4.874 37.531 4.874 C 38.32 6.362 38.917 7.754 39.051 9.443 C 39.063 9.589 39.063 9.589 39.075 9.737 C 39.209 12.834 37.884 15.718 35.86 17.972 C 34.803 19.085 33.53 19.804 32.213 20.561 C 31.959 20.713 31.706 20.865 31.453 21.018 C 31.613 21.105 31.772 21.191 31.937 21.281 C 34.153 22.496 35.707 23.477 36.515 25.997 C 37.351 28.964 36.573 31.868 35.1 34.518 C 33.321 37.578 30.57 39.537 27.208 40.551 C 26.852 40.644 26.494 40.733 26.135 40.818 C 25.962 40.86 25.789 40.902 25.611 40.945 C 21.376 41.857 16.903 41.628 12.598 41.619 C 11.709 41.617 10.819 41.618 9.93 41.62 C 9.237 41.621 8.545 41.621 7.852 41.62 C 7.524 41.62 7.196 41.62 6.868 41.621 C 6.41 41.622 5.953 41.621 5.496 41.619 C 5.363 41.62 5.231 41.62 5.095 41.621 C 3.666 41.611 2.034 41.494 0.912 40.513 C 0.246 39.672 0.034 38.997 0.076 37.934 C 0.079 37.808 0.082 37.682 0.085 37.552 C 0.128 36.277 0.342 35.053 0.6 33.807 C 0.649 33.563 0.697 33.319 0.745 33.075 C 0.874 32.423 1.006 31.77 1.139 31.118 C 1.279 30.43 1.417 29.741 1.554 29.053 C 1.785 27.898 2.018 26.743 2.253 25.588 C 2.522 24.26 2.789 22.932 3.055 21.603 C 3.339 20.178 3.626 18.753 3.913 17.328 C 3.995 16.922 4.076 16.516 4.157 16.11 C 4.286 15.468 4.416 14.826 4.547 14.184 C 4.594 13.951 4.641 13.718 4.688 13.485 C 5.557 9.132 5.557 9.132 6.572 7.33 C 6.63 7.223 6.688 7.117 6.748 7.007 C 8.157 4.51 10.046 3.063 12.754 2.17 C 14.665 1.664 16.56 1.631 18.521 1.64 Z M 17.199 12.441 C 16.343 13.74 16.227 15.074 16.258 16.601 C 18.753 17.435 22.713 17.16 25.205 16.325 C 25.976 15.894 26.617 15.153 26.895 14.317 C 26.975 13.621 26.952 13.081 26.676 12.432 C 25.928 11.663 24.91 11.524 23.869 11.512 C 23.747 11.513 23.625 11.514 23.499 11.515 C 23.304 11.514 23.304 11.514 23.105 11.513 C 22.832 11.513 22.559 11.514 22.286 11.516 C 21.872 11.518 21.457 11.516 21.042 11.513 C 20.775 11.513 20.509 11.514 20.242 11.515 C 20.058 11.513 20.058 11.513 19.871 11.512 C 18.835 11.524 17.972 11.701 17.199 12.441 Z M 14.435 25.74 C 13.871 27.667 13.521 29.524 13.371 31.527 C 14.188 31.696 14.98 31.704 15.809 31.705 C 15.956 31.706 16.102 31.706 16.253 31.707 C 16.562 31.707 16.872 31.708 17.181 31.708 C 17.65 31.708 18.119 31.711 18.588 31.714 C 18.89 31.714 19.192 31.715 19.494 31.715 C 19.632 31.716 19.77 31.717 19.912 31.718 C 21.675 31.712 23.469 31.458 24.768 30.157 C 25.335 29.337 25.525 28.555 25.375 27.567 C 25.118 26.848 24.808 26.445 24.16 26.044 C 22.871 25.497 21.527 25.491 20.152 25.464 C 20.038 25.461 19.925 25.458 19.808 25.455 C 17.998 25.408 16.229 25.472 14.435 25.74 Z" fill="rgb(255,255,255)"></path><path d="M 76.474 3.561 C 76.734 3.808 76.734 3.808 76.792 4.105 C 76.524 6.496 75.209 9.242 73.391 10.814 C 72.453 11.342 71.45 11.594 70.376 11.595 C 70.168 11.596 70.168 11.596 69.957 11.596 C 69.811 11.596 69.666 11.595 69.516 11.594 C 69.366 11.594 69.216 11.594 69.061 11.593 C 68.121 11.588 67.194 11.542 66.257 11.458 C 62.889 11.203 58.961 11.555 56.274 13.804 C 52.943 16.766 51.793 21.769 51.488 26.056 C 51.408 27.65 51.49 29.208 52.574 30.461 C 54.059 31.738 55.652 31.979 57.552 31.864 C 59.646 31.666 61.272 30.933 62.645 29.308 C 63.279 28.411 63.52 27.396 63.818 26.349 C 60.509 26.273 60.509 26.273 57.132 26.197 C 57.132 23.454 57.516 20.781 59.51 18.743 C 61.136 17.318 63.217 17.188 65.292 17.185 C 65.474 17.184 65.474 17.184 65.659 17.183 C 65.914 17.183 66.169 17.182 66.423 17.182 C 66.806 17.182 67.189 17.179 67.571 17.176 C 69.941 17.168 72.573 17.19 74.497 18.772 C 75.558 19.854 75.799 21.202 75.838 22.667 C 75.776 28.106 73.404 33.368 69.592 37.163 C 66.832 39.82 63.001 41.181 59.26 41.732 C 58.998 41.773 58.998 41.773 58.73 41.816 C 54.02 42.384 48.293 41.848 44.388 38.924 C 44.176 38.746 43.967 38.565 43.761 38.381 C 43.657 38.289 43.553 38.197 43.445 38.102 C 40.891 35.703 39.766 31.882 39.615 28.456 C 39.488 23.313 40.678 17.918 43.153 13.403 C 43.202 13.312 43.251 13.221 43.301 13.127 C 46.058 7.976 50.302 4.307 55.917 2.589 C 62.017 0.896 70.802 0.133 76.474 3.561 Z" fill="rgb(255,255,255)"></path><path d="M 100.867 1.646 C 101.22 1.646 101.574 1.647 101.928 1.647 C 102.848 1.648 103.769 1.651 104.689 1.654 C 105.632 1.658 106.576 1.659 107.519 1.66 C 109.362 1.664 111.206 1.669 113.049 1.675 C 113.027 2.064 113.004 2.452 112.981 2.841 C 112.975 2.95 112.969 3.059 112.963 3.172 C 112.911 4.024 112.802 4.848 112.622 5.683 C 112.595 5.812 112.567 5.941 112.539 6.073 C 112.128 7.953 111.619 9.496 109.93 10.61 C 108.166 11.542 106.309 11.595 104.353 11.602 C 103.992 11.606 103.632 11.609 103.271 11.613 C 102.709 11.618 102.148 11.623 101.586 11.625 C 101.039 11.627 100.493 11.633 99.946 11.64 C 99.699 11.64 99.699 11.64 99.446 11.639 C 97.569 11.669 95.611 12.19 94.227 13.517 C 94.12 13.63 94.014 13.743 93.904 13.86 C 93.678 13.935 93.678 13.935 93.448 14.012 C 93.284 14.283 93.284 14.283 93.144 14.621 C 93.074 14.75 93.003 14.879 92.931 15.011 C 92.288 16.219 91.777 17.496 91.777 18.886 C 91.928 18.825 92.078 18.765 92.234 18.702 C 97.03 16.809 102.962 16.954 108.035 17.667 C 108.135 17.718 108.236 17.768 108.339 17.82 C 108.438 20.407 108.124 22.838 106.487 24.95 C 104.866 26.7 102.758 27.692 100.374 27.783 C 100.028 27.788 99.681 27.791 99.334 27.792 C 99.054 27.796 99.054 27.796 98.768 27.799 C 98.175 27.807 97.583 27.811 96.99 27.815 C 96.211 27.822 95.432 27.831 94.652 27.84 C 94.467 27.842 94.281 27.844 94.09 27.846 C 92.707 27.863 91.332 27.919 89.953 28.024 C 89.306 30.62 88.815 33.25 88.302 35.875 C 88.222 36.285 88.141 36.695 88.06 37.105 C 87.985 37.488 87.91 37.87 87.836 38.252 C 87.633 39.28 87.39 40.278 87.066 41.275 C 85.687 41.638 84.335 41.626 82.919 41.619 C 82.509 41.618 82.099 41.619 81.689 41.621 C 78.288 41.624 78.288 41.624 77.038 40.818 C 76.21 39.965 76.085 39.12 76.095 37.975 C 76.157 36.963 76.374 35.974 76.572 34.982 C 76.62 34.735 76.668 34.489 76.715 34.242 C 76.845 33.577 76.976 32.912 77.108 32.248 C 77.218 31.689 77.327 31.13 77.436 30.572 C 77.75 28.961 78.068 27.352 78.388 25.743 C 78.508 25.14 78.627 24.538 78.746 23.936 C 80.372 15.676 80.372 15.676 81.416 12.889 C 81.466 12.753 81.517 12.616 81.569 12.476 C 83.128 8.388 85.717 5.078 89.735 3.236 C 90.66 2.837 91.606 2.555 92.584 2.313 C 92.702 2.283 92.821 2.254 92.943 2.223 C 95.549 1.63 98.21 1.633 100.867 1.646 Z" fill="rgb(255,255,255)"></path><path d="M 196.019 12.327 C 198.315 12.264 200.565 12.447 202.813 12.936 C 202.924 12.96 203.033 12.984 203.147 13.009 C 203.849 13.173 204.475 13.406 205.13 13.708 C 205.203 14.925 205.007 16.069 204.771 17.258 C 204.7 17.613 204.631 17.968 204.563 18.324 C 204.399 19.171 204.233 20.019 204.066 20.866 C 203.814 22.153 203.562 23.44 203.313 24.728 C 203.205 25.276 203.097 25.823 202.989 26.371 C 202.216 30.314 201.576 34.301 201.448 38.323 C 201.439 38.574 201.439 38.574 201.431 38.829 C 201.422 39.151 201.415 39.473 201.41 39.795 C 201.406 39.94 201.403 40.085 201.398 40.234 C 201.397 40.362 201.393 40.49 201.392 40.621 C 201.314 41.065 201.202 41.268 200.875 41.579 C 200.248 41.71 199.607 41.671 198.967 41.665 C 198.792 41.669 198.619 41.672 198.44 41.676 C 197.292 41.674 196.332 41.541 195.405 40.818 C 194.864 39.996 194.869 39.119 194.845 38.162 C 194.84 38.022 194.834 37.881 194.829 37.736 C 194.817 37.393 194.807 37.049 194.797 36.706 C 194.677 36.847 194.559 36.989 194.436 37.135 C 192.71 39.175 191.157 40.822 188.568 41.732 C 188.429 41.781 188.291 41.83 188.148 41.88 C 185.875 42.563 183.306 42.391 181.198 41.305 C 179.104 40.076 177.731 38.374 177.091 36.002 C 176.076 30.878 177.089 25.238 179.949 20.873 C 182.994 16.395 187.176 13.707 192.467 12.679 C 193.652 12.463 194.816 12.364 196.019 12.327 Z M 189.383 20.161 C 186.244 22.703 184.498 26.632 184.036 30.599 C 183.897 32.2 184.191 33.727 185.187 35.011 C 185.927 35.8 186.832 36.19 187.907 36.262 C 189.598 36.198 190.993 35.145 192.117 33.952 C 194.816 30.79 195.741 26.849 196.527 22.865 C 196.609 22.451 196.692 22.037 196.779 21.624 C 197.107 20.111 197.107 20.111 197.077 18.581 C 195.034 16.632 191.221 18.774 189.383 20.161 Z" fill="rgb(255,255,255)"></path><path d="M 155.139 14.469 C 156.516 15.626 157.339 17.259 157.57 19.038 C 157.702 21.57 157.582 23.764 155.87 25.768 C 152.115 29.738 145.796 29.942 140.704 30.157 C 140.247 30.164 139.793 30.162 139.336 30.157 C 139.524 32.032 139.825 33.618 141.16 35.03 C 142.939 36.482 145.348 36.567 147.542 36.401 C 149.101 36.186 150.631 35.711 152.138 35.27 C 152.597 35.137 152.987 35.03 153.468 35.03 C 153.571 35.515 153.671 36.001 153.771 36.487 C 153.8 36.623 153.829 36.759 153.86 36.9 C 154.288 38.993 154.288 38.993 153.771 39.904 C 153.188 40.45 152.57 40.725 151.825 40.98 C 151.712 41.019 151.599 41.058 151.483 41.098 C 147.924 42.286 143.235 42.692 139.64 41.579 C 139.472 41.528 139.304 41.476 139.13 41.422 C 137.923 41.002 136.835 40.412 135.842 39.599 C 135.842 39.499 135.842 39.398 135.842 39.295 C 135.71 39.243 135.71 39.243 135.575 39.19 C 134.161 38.362 133.358 36.218 132.926 34.716 C 131.634 29.542 132.713 24.376 135.379 19.829 C 135.836 19.113 136.354 18.465 136.905 17.82 C 136.972 17.734 137.039 17.649 137.108 17.561 C 137.626 16.899 138.234 16.371 138.881 15.84 C 139.01 15.731 139.14 15.622 139.273 15.51 C 143.577 12.071 150.574 10.881 155.139 14.469 Z M 143.439 19.343 C 143.338 19.416 143.237 19.488 143.133 19.564 C 141.853 20.564 140.832 22.201 140.4 23.76 C 140.4 23.961 140.4 24.162 140.4 24.369 C 143.285 24.92 146.96 24.489 149.517 22.998 C 150.2 22.531 150.729 21.997 150.972 21.183 C 151.115 20.385 150.95 19.902 150.581 19.191 C 150.505 19.04 150.505 19.04 150.429 18.886 C 150.328 18.886 150.228 18.886 150.125 18.886 C 150.125 18.785 150.125 18.685 150.125 18.581 C 149.962 18.484 149.799 18.386 149.631 18.286 C 149.539 18.231 149.447 18.177 149.353 18.12 C 147.437 17.148 144.993 18.119 143.439 19.343 Z" fill="rgb(255,255,255)"></path><path d="M 172.461 5.94 C 172.611 6.091 172.611 6.091 172.765 6.245 C 172.748 6.588 172.748 6.588 172.672 7.015 C 172.631 7.25 172.631 7.25 172.59 7.489 C 172.56 7.653 172.529 7.817 172.499 7.987 C 172.458 8.225 172.458 8.225 172.415 8.468 C 172.305 9.097 172.192 9.724 172.067 10.35 C 172.04 10.492 172.013 10.635 171.984 10.781 C 171.958 10.905 171.934 11.029 171.908 11.157 C 171.837 11.698 171.853 12.248 171.853 12.794 C 173.709 12.894 175.564 12.995 177.475 13.098 C 178 14.674 177.361 16.795 176.716 18.277 C 174.638 18.624 172.587 18.612 170.486 18.581 C 170.461 18.721 170.461 18.721 170.436 18.864 C 170.227 20.017 170.009 21.168 169.788 22.319 C 169.724 22.656 169.659 22.993 169.595 23.33 C 169.411 24.287 169.229 25.243 169.045 26.2 C 168.933 26.789 168.82 27.377 168.708 27.966 C 168.664 28.188 168.621 28.411 168.579 28.634 C 168.52 28.945 168.46 29.257 168.401 29.568 C 168.366 29.745 168.333 29.921 168.298 30.103 C 168.115 31.124 168.023 32.102 168.017 33.136 C 168.014 33.262 168.01 33.387 168.007 33.517 C 168.003 34.282 168.052 34.844 168.51 35.487 C 169.253 36.009 170.044 36.053 170.922 36.125 C 171.122 36.144 171.122 36.144 171.328 36.163 C 171.654 36.193 171.982 36.221 172.309 36.249 C 172.418 40.301 172.418 40.301 171.628 41.45 C 170.624 42.189 169.191 42.086 167.997 42.074 C 167.843 42.073 167.69 42.072 167.532 42.071 C 165.584 42.043 163.818 41.827 162.281 40.513 C 162.281 40.413 162.281 40.312 162.281 40.209 C 162.18 40.209 162.08 40.209 161.977 40.209 C 160.463 38.298 160.45 36.001 160.711 33.691 C 160.968 31.66 161.398 29.658 161.805 27.653 C 162.159 25.908 162.493 24.161 162.803 22.408 C 162.821 22.301 162.841 22.194 162.861 22.084 C 163.068 20.919 163.253 19.762 163.344 18.581 C 163.156 18.588 162.967 18.594 162.774 18.6 C 161.882 18.603 161.027 18.443 160.153 18.277 C 160.048 16.385 160.361 14.86 161.065 13.098 C 162.218 12.948 163.372 12.797 164.56 12.641 C 164.63 12.33 164.7 12.018 164.771 11.697 C 164.841 11.394 164.911 11.091 164.981 10.788 C 165.029 10.578 165.076 10.368 165.123 10.158 C 165.19 9.855 165.26 9.552 165.332 9.25 C 165.373 9.068 165.414 8.886 165.456 8.699 C 165.64 8.177 165.798 7.953 166.231 7.615 C 166.594 7.442 166.594 7.442 166.997 7.305 C 167.147 7.255 167.296 7.204 167.45 7.151 C 167.609 7.1 167.767 7.049 167.931 6.997 C 168.093 6.943 168.255 6.89 168.422 6.836 C 169.398 6.525 170.37 6.256 171.378 6.073 C 171.486 6.054 171.592 6.034 171.701 6.014 C 171.995 5.967 171.995 5.967 172.461 5.94 Z" fill="rgb(255,255,255)"></path><path d="M 229.597 0.117 C 229.707 0.117 229.82 0.117 229.935 0.117 C 230.171 0.118 230.405 0.119 230.64 0.121 C 231.001 0.124 231.359 0.124 231.719 0.124 C 231.949 0.125 232.178 0.126 232.408 0.127 C 232.514 0.127 232.622 0.127 232.733 0.127 C 233.196 0.132 233.556 0.156 234 0.305 C 234.09 1.475 233.948 2.562 233.74 3.71 C 233.713 3.863 233.685 4.016 233.658 4.173 C 233.338 5.967 232.997 7.758 232.651 9.548 C 232.616 9.731 232.581 9.915 232.544 10.104 C 231.949 13.195 231.323 16.279 230.686 19.362 C 229.946 22.937 229.22 26.514 228.513 30.095 C 228.446 30.435 228.378 30.774 228.311 31.113 C 227.817 33.597 227.351 36.081 226.954 38.582 C 226.807 39.493 226.644 40.384 226.403 41.275 C 224.617 41.739 222.738 41.762 220.948 41.312 C 220.478 41.034 220.379 40.709 220.173 40.209 C 219.803 37.758 220.548 35.203 221.031 32.809 C 221.154 32.196 221.274 31.582 221.394 30.968 C 221.445 30.715 221.493 30.462 221.543 30.209 C 221.568 30.082 221.593 29.956 221.618 29.825 C 221.694 29.437 221.771 29.05 221.847 28.662 C 222.324 26.243 222.777 23.82 223.224 21.395 C 223.441 20.219 223.661 19.044 223.879 17.868 C 223.912 17.691 223.912 17.691 223.946 17.511 C 224.464 14.723 224.986 11.935 225.511 9.149 C 225.611 8.621 225.71 8.094 225.808 7.566 C 225.924 6.947 226.041 6.328 226.158 5.709 C 226.201 5.483 226.243 5.258 226.286 5.032 C 226.573 3.491 226.921 1.974 227.314 0.457 C 228.095 0.221 228.784 0.109 229.597 0.117 Z" fill="rgb(255,255,255)"></path><path d="M 133.41 12.489 C 133.551 13.054 133.559 13.487 133.466 14.06 C 133.441 14.214 133.416 14.367 133.39 14.525 C 133.363 14.685 133.335 14.846 133.306 15.012 C 133.264 15.257 133.264 15.257 133.22 15.508 C 132.696 18.439 132.696 18.439 132.049 18.984 C 131.244 19.344 130.378 19.47 129.516 19.637 C 127.552 20.047 126.086 21.053 124.977 22.732 C 122.715 26.335 122.041 30.607 121.312 34.726 C 121.206 35.322 121.099 35.919 120.991 36.515 C 120.925 36.882 120.859 37.249 120.795 37.617 C 120.57 38.865 120.254 40.062 119.887 41.275 C 118.964 41.543 118.13 41.633 117.171 41.627 C 117.037 41.626 116.903 41.626 116.766 41.625 C 114.566 41.585 114.566 41.585 113.776 40.779 C 113.02 39.613 113.55 37.902 113.82 36.625 C 114.382 33.879 114.889 31.123 115.395 28.367 C 115.42 28.229 115.446 28.092 115.472 27.95 C 116.138 24.329 116.78 20.714 117.207 17.055 C 117.236 16.814 117.264 16.573 117.292 16.332 C 117.311 16.168 117.311 16.168 117.331 16 C 117.451 15.014 117.661 14.06 117.912 13.098 C 122.552 12.626 122.552 12.626 123.485 13.276 C 123.773 13.677 123.737 13.976 123.73 14.466 C 123.729 14.643 123.727 14.82 123.726 15.003 C 123.722 15.188 123.718 15.373 123.714 15.564 C 123.711 15.844 123.711 15.844 123.708 16.13 C 123.703 16.592 123.695 17.053 123.686 17.515 C 123.775 17.402 123.864 17.289 123.956 17.173 C 126.594 13.855 129.155 12.296 133.41 12.489 Z" fill="rgb(255,255,255)"></path><path d="M 218.197 13.098 C 218.342 13.894 218.343 14.607 218.245 15.412 C 218.223 15.59 218.223 15.59 218.202 15.772 C 218.044 17.039 217.795 18.286 217.533 19.535 C 217.378 20.281 217.228 21.028 217.076 21.774 C 217.044 21.933 217.012 22.092 216.979 22.256 C 216.585 24.203 216.219 26.154 215.851 28.106 C 215.816 28.29 215.783 28.474 215.746 28.663 C 215.535 29.786 215.324 30.909 215.114 32.032 C 214.827 33.558 214.54 35.085 214.253 36.611 C 214.154 37.139 214.055 37.667 213.955 38.195 C 213.896 38.514 213.835 38.834 213.776 39.153 C 213.748 39.298 213.721 39.444 213.694 39.593 C 213.668 39.726 213.644 39.859 213.618 39.997 C 213.595 40.112 213.574 40.227 213.552 40.346 C 213.489 40.658 213.414 40.966 213.335 41.275 C 212.326 41.533 211.402 41.631 210.363 41.627 C 210.226 41.63 210.091 41.632 209.951 41.634 C 208.995 41.635 208.069 41.557 207.309 40.907 C 206.648 40.124 206.891 38.592 206.953 37.62 C 207.064 36.637 207.269 35.67 207.465 34.701 C 207.518 34.424 207.573 34.147 207.626 33.87 C 207.74 33.285 207.854 32.701 207.971 32.117 C 208.243 30.748 208.508 29.377 208.774 28.007 C 208.863 27.551 208.951 27.095 209.039 26.64 C 209.383 24.877 209.714 23.113 210.024 21.345 C 210.042 21.244 210.061 21.144 210.079 21.04 C 210.254 20.045 210.424 19.05 210.592 18.054 C 211.261 14.16 211.261 14.16 211.968 13.098 C 213.812 12.558 216.31 12.911 218.197 13.098 Z" fill="rgb(255,255,255)"></path><path d="M 219.427 1.9 C 220.218 2.634 220.566 3.355 220.676 4.424 C 220.726 5.763 220.457 6.759 219.755 7.891 C 218.624 8.993 217.565 9.18 216.02 9.176 C 215.101 9.158 214.403 9.081 213.685 8.457 C 212.782 7.495 212.483 6.466 212.521 5.16 C 212.65 4.115 213.014 3.019 213.791 2.285 C 215.354 1.067 217.732 0.698 219.427 1.9 Z" fill="rgb(255,255,255)"></path></g></svg>