<svg xmlns="http://www.w3.org/2000/svg" width="167.224" height="54.994" fill="none" overflow="visible"><g><path d="M 30.565 0.103 C 31.139 0.587 31.485 1.046 31.74 1.756 C 31.778 2.851 31.696 3.863 31.508 4.94 C 31.459 5.232 31.409 5.523 31.358 5.823 C 31.332 5.976 31.305 6.129 31.278 6.287 C 30.231 12.257 30.231 12.257 29.859 18.29 C 30.111 18.129 30.363 17.969 30.622 17.803 C 35.096 14.95 39.585 12.118 44.201 9.499 C 45.632 8.676 46.923 7.765 48.198 6.716 C 50.598 4.784 53.16 2.93 56.339 2.878 C 56.565 2.872 56.791 2.866 57.024 2.86 C 57.215 2.885 57.406 2.911 57.603 2.937 C 58.336 4.042 58.145 4.93 57.897 6.2 C 56.089 10.478 48.496 13.568 44.672 15.692 C 44.139 15.988 43.606 16.285 43.074 16.582 C 42.869 16.696 42.869 16.696 42.659 16.812 C 42.242 17.044 41.826 17.276 41.409 17.508 C 41.273 17.584 41.137 17.66 40.996 17.738 C 38.267 19.258 35.564 20.773 33.033 22.613 C 32.11 23.244 31.136 23.778 30.159 24.318 C 29.982 24.433 29.806 24.549 29.624 24.668 C 29.624 24.824 29.624 24.979 29.624 25.14 C 30.096 25.494 30.566 25.817 31.06 26.137 C 31.209 26.235 31.359 26.334 31.512 26.435 C 31.994 26.753 32.477 27.069 32.96 27.384 C 35.296 28.911 37.542 30.498 39.734 32.226 C 40.827 33.074 41.909 33.679 43.173 34.219 C 44.839 34.97 46.347 35.881 47.86 36.906 C 48.07 37.047 48.28 37.188 48.497 37.334 C 49.458 37.988 50.392 38.655 51.291 39.394 C 53.599 41.253 55.477 41.604 58.415 41.281 C 62.052 40.799 65.99 39.679 68.418 36.714 C 69.473 34.969 70.101 33.498 70.079 31.458 C 70.076 31.077 70.076 31.077 70.072 30.687 C 70.07 30.494 70.067 30.3 70.064 30.1 C 69.923 30.03 69.783 29.96 69.638 29.888 C 69.228 29.681 68.822 29.464 68.418 29.244 C 66.845 28.584 65.035 28.71 63.451 29.274 C 60.857 30.47 59.175 32.435 57.882 34.942 C 57.638 35.665 57.538 36.261 57.441 37.009 C 57.259 38.04 57.259 38.04 56.718 38.431 C 56.229 38.616 55.765 38.74 55.252 38.84 C 55.098 38.882 54.945 38.924 54.786 38.967 C 53.634 39.231 52.57 39.248 51.49 38.751 C 50.25 37.116 50.748 34.221 50.754 32.228 C 50.755 31.684 50.754 31.139 50.752 30.595 C 50.75 25.297 50.75 25.297 51.37 22.934 C 51.475 22.384 51.525 21.873 51.559 21.316 C 51.743 18.541 51.743 18.541 52.351 17.838 C 52.851 17.584 53.293 17.456 53.841 17.345 C 54.122 17.243 54.404 17.141 54.693 17.036 C 55.521 16.866 56.082 16.909 56.898 17.109 C 57.3 18.333 57.443 19.434 57.427 20.726 C 57.426 20.907 57.425 21.089 57.424 21.275 C 57.395 23.287 57.16 25.273 56.898 27.266 C 57.151 27.138 57.404 27.01 57.665 26.877 C 61.828 24.809 66.313 23.76 70.897 25.164 C 72.99 25.933 75.192 27.18 76.358 29.15 C 77.242 31.332 76.867 33.576 76.177 35.769 C 74.574 39.579 71.08 41.67 67.492 43.269 C 65.103 44.222 62.449 45.031 59.866 44.996 C 59.66 44.994 59.455 44.991 59.243 44.989 C 59.013 44.985 59.013 44.985 58.779 44.981 C 58.774 45.152 58.769 45.322 58.764 45.498 C 58.488 46.329 58.12 46.614 57.456 47.149 C 55.908 47.686 54.278 46.99 52.871 46.325 C 52.692 46.241 52.512 46.158 52.327 46.073 C 47.699 43.9 43.34 41.35 39.029 38.604 C 38.644 38.358 38.644 38.358 38.251 38.108 C 36.546 37.02 34.847 35.925 33.151 34.824 C 32.939 34.687 32.726 34.549 32.507 34.407 C 31.389 33.681 30.271 32.955 29.154 32.226 C 29.087 35.812 29.201 39.378 29.375 42.959 C 29.385 43.179 29.396 43.399 29.407 43.626 C 29.459 44.708 29.512 45.789 29.566 46.871 C 29.644 48.44 29.718 50.01 29.786 51.58 C 29.797 51.814 29.809 52.049 29.82 52.29 C 29.829 52.501 29.838 52.712 29.848 52.93 C 29.856 53.108 29.864 53.285 29.872 53.468 C 29.859 53.979 29.766 54.413 29.624 54.901 C 29.272 54.928 28.919 54.946 28.566 54.961 C 28.37 54.971 28.173 54.982 27.971 54.994 C 26.942 54.858 26.168 54.682 25.392 53.957 C 24.899 52.923 24.643 51.85 24.379 50.738 C 24.228 50.155 24.077 49.571 23.926 48.987 C 23.856 48.704 23.786 48.422 23.714 48.13 C 23.541 47.459 23.344 46.807 23.128 46.149 C 22.694 44.724 22.566 43.272 22.424 41.792 C 22.395 41.5 22.365 41.207 22.335 40.906 C 21.959 37.057 21.829 33.258 21.866 29.392 C 21.706 29.486 21.546 29.581 21.381 29.679 C 20.031 30.474 18.676 31.254 17.31 32.019 C 15.986 32.762 14.679 33.527 13.377 34.308 C 3.96 39.947 3.96 39.947 1.176 39.312 C 0.485 38.825 0.485 38.825 0 38.367 C 0.367 37.162 0.986 36.61 2.076 36.001 C 2.591 35.737 3.109 35.478 3.627 35.22 C 6.341 33.824 8.821 32.115 11.33 30.381 C 12.001 29.92 12.673 29.459 13.345 28.999 C 13.758 28.716 14.171 28.432 14.583 28.147 C 15.739 27.35 16.909 26.587 18.104 25.849 C 17.363 25.015 16.545 24.519 15.566 24.016 C 15.411 23.935 15.256 23.854 15.097 23.77 C 14.766 23.596 14.436 23.423 14.105 23.251 C 13.246 22.805 12.391 22.351 11.536 21.898 C 11.369 21.809 11.202 21.721 11.03 21.63 C 3.971 17.885 3.971 17.885 2.116 15.692 C 1.86 14.766 1.752 14.275 2.219 13.419 C 3.191 12.514 4.494 11.406 5.878 11.44 C 7.362 12.053 8.697 12.96 10.027 13.85 C 11.17 14.59 12.342 15.102 13.601 15.611 C 14.852 16.146 16.033 16.805 17.222 17.464 C 17.463 17.595 17.703 17.726 17.951 17.861 C 19.285 18.593 20.586 19.356 21.866 20.18 C 21.894 19.962 21.922 19.743 21.951 19.519 C 23.928 4.435 23.928 4.435 26.333 0.811 C 27.594 0.161 29.161 -0.186 30.565 0.103 Z" fill="rgb(255,255,255)"></path><path d="M 133.775 7.425 C 139.012 7.403 139.012 7.403 144.355 7.381 C 145.45 7.374 146.545 7.368 147.673 7.361 C 149.029 7.358 149.029 7.358 149.668 7.357 C 150.106 7.356 150.544 7.354 150.982 7.35 C 155.399 7.315 160.266 7.414 163.656 10.672 C 165.676 13.067 165.696 15.785 165.515 18.763 C 165.207 20.847 163.865 22.51 162.253 23.797 C 161.292 24.477 160.258 24.945 159.167 25.376 C 159.361 25.425 159.554 25.474 159.753 25.525 C 162.58 26.309 164.655 27.559 166.221 30.1 C 167.429 32.554 167.491 35.378 166.698 37.967 C 165.685 40.627 163.983 42.396 161.445 43.638 C 158.543 44.888 155.644 45.258 152.512 45.244 C 152.305 45.244 152.097 45.244 151.883 45.244 C 151.22 45.244 150.557 45.242 149.893 45.24 C 149.48 45.24 149.067 45.24 148.654 45.24 C 147.133 45.238 145.612 45.235 144.091 45.232 C 140.686 45.227 137.282 45.222 133.775 45.217 C 133.775 32.746 133.775 20.274 133.775 7.425 Z M 139.888 11.913 C 139.888 15.654 139.888 19.396 139.888 23.25 C 141.581 23.265 143.274 23.28 144.967 23.287 C 145.756 23.291 146.545 23.296 147.333 23.304 C 148.242 23.313 149.151 23.317 150.059 23.32 C 150.475 23.325 150.475 23.325 150.9 23.331 C 153.602 23.331 156.401 23.048 158.462 21.125 C 159.57 19.692 159.796 18.163 159.638 16.401 C 159.301 14.911 158.648 13.904 157.345 13.065 C 155.142 11.847 152.769 11.846 150.312 11.867 C 150.013 11.867 149.713 11.868 149.405 11.869 C 148.617 11.871 147.829 11.875 147.042 11.88 C 146.235 11.885 145.428 11.887 144.621 11.89 C 143.043 11.895 141.466 11.904 139.888 11.913 Z M 139.888 27.738 C 139.888 32.025 139.888 36.312 139.888 40.729 C 143.03 40.751 143.03 40.751 146.236 40.774 C 146.889 40.78 147.542 40.787 148.215 40.793 C 154.04 40.993 154.04 40.993 159.167 38.604 C 160.478 37.015 160.678 35.527 160.658 33.5 C 160.5 31.913 159.804 30.643 158.668 29.539 C 156.875 28.148 154.542 27.707 152.326 27.711 C 152.049 27.712 151.771 27.712 151.485 27.712 C 151.041 27.713 151.041 27.713 150.588 27.715 C 150.129 27.716 150.129 27.716 149.661 27.716 C 148.851 27.717 148.042 27.719 147.232 27.722 C 146.405 27.725 145.578 27.726 144.75 27.727 C 143.129 27.729 141.509 27.734 139.888 27.738 Z" fill="rgb(255,255,255)"></path><path d="M 93.661 7.425 C 95.678 7.425 97.695 7.425 99.774 7.425 C 99.851 12.803 99.929 18.182 100.009 23.723 C 101.095 22.788 102.181 21.852 103.3 20.888 C 104.608 19.811 104.608 19.811 105.234 19.3 C 105.967 18.696 106.692 18.081 107.415 17.464 C 108.555 16.49 109.708 15.534 110.868 14.585 C 111.604 13.977 112.332 13.359 113.058 12.74 C 114.416 11.581 115.786 10.439 117.172 9.315 C 117.317 9.156 117.462 8.998 117.611 8.835 C 119.085 7.375 120.324 7.231 122.302 7.245 C 122.914 7.259 123.525 7.283 124.137 7.307 C 124.557 7.316 124.977 7.325 125.396 7.333 C 126.417 7.353 127.437 7.386 128.458 7.425 C 127.813 8.082 127.174 8.722 126.46 9.302 C 126.311 9.423 126.162 9.544 126.008 9.669 C 125.852 9.796 125.695 9.922 125.533 10.053 C 125.368 10.187 125.203 10.321 125.032 10.459 C 123.31 11.853 121.57 13.223 119.827 14.59 C 118.062 15.974 116.315 17.377 114.58 18.799 C 113.279 19.864 111.962 20.907 110.64 21.946 C 109.597 22.766 108.564 23.598 107.532 24.431 C 108.398 25.312 109.286 26.162 110.192 27 C 110.395 27.188 110.395 27.188 110.602 27.38 C 111.447 28.16 112.302 28.927 113.17 29.682 C 113.766 30.207 114.352 30.744 114.938 31.281 C 115.829 32.097 116.727 32.902 117.636 33.696 C 118.395 34.364 119.142 35.046 119.891 35.726 C 120.387 36.173 120.887 36.615 121.39 37.054 C 122.376 37.916 123.339 38.803 124.305 39.688 C 124.974 40.296 125.651 40.893 126.331 41.487 C 127.104 42.168 127.863 42.865 128.623 43.56 C 129.149 44.04 129.149 44.04 129.703 44.424 C 129.835 44.53 129.967 44.636 130.103 44.745 C 130.103 44.901 130.103 45.057 130.103 45.217 C 121.987 45.791 121.987 45.791 120.124 44.556 C 119.368 43.896 118.758 43.142 118.181 42.323 C 117.749 41.735 117.227 41.288 116.672 40.818 C 115.65 39.9 114.642 38.968 113.636 38.033 C 112.774 37.232 111.91 36.433 111.045 35.636 C 110.929 35.53 110.814 35.424 110.695 35.314 C 110.462 35.1 110.23 34.887 109.997 34.673 C 109.41 34.133 108.824 33.593 108.238 33.053 C 108.003 32.836 107.767 32.62 107.532 32.403 C 106.122 31.104 106.122 31.104 105.769 30.779 C 105.535 30.564 105.301 30.349 105.067 30.133 C 104.458 29.573 103.85 29.011 103.242 28.448 C 103.117 28.331 102.991 28.215 102.862 28.095 C 102.513 27.773 102.165 27.45 101.817 27.127 C 101.232 26.601 100.621 26.105 100.009 25.613 C 99.931 32.082 99.854 38.552 99.774 45.217 C 97.756 45.217 95.739 45.217 93.661 45.217 C 93.661 32.746 93.661 20.274 93.661 7.425 Z" fill="rgb(255,255,255)"></path></g></svg>